# xmcd CD database file
#
# Track frame offsets:
#	150
#	20520
#	41367
#	63470
#	79425
#
# Disc length: 1328 seconds
#
# Revision: 0
# Processed by: cddbd v1.5PL3 Copyright (c) Steve Scherf et al.
# Submitted via: CDex 1.51
#
DISCID=3a052e05
DTITLE=夢物語 - 夢物語
DYEAR=2003
DGENRE=JPop
TTITLE0=夢物語
TTITLE1=風の詩
TTITLE2=IT'S ONLY DREAM
TTITLE3=ひと夏の…
TTITLE4=夢物語〜Karaoke〜
EXTD=YEAR: 2003
EXTT0=
EXTT1=
EXTT2=
EXTT3=
EXTT4=
PLAYORDER=
